Patient4_TMGait_0pt7_01_right_12_GRF.mot
version=1
nRows=65
nColumns=19
inDegrees=no
endheader
time	F1x	F1y	F1z	M1x	M1y	M1z	F2x	F2y	F2z	M2x	M2y	M2z	EC1x	EC1y	EC1z	EC2x	EC2y	EC2z
13.24	3.3112	741.5931	65.698	-263.3293	-59.2164	746.3042	23.5805	0.21712	13.45	-3.8746	-11.1065	-6.0495	-0.0592	0.0182	-0.0073	-0.0462	0.0165	0.9585
13.2514	9.2417	738.8765	62.8646	-261.7792	-55.1749	739.9374	15.6853	1.0582	9.2146	-2.302	-7.4977	-3.0996	-0.0592	0.0182	-0.0073	-0.0462	0.0165	0.9585
13.2627	15.1748	734.9831	60.2158	-259.8614	-51.0733	731.8209	9.0345	1.8067	5.5388	-0.93156	-4.3809	-0.53121	-0.0592	0.0182	-0.0073	-0.0462	0.0165	0.9585
13.2741	20.7875	730.1841	57.9702	-257.6742	-47.2066	722.4443	3.9499	2.4619	2.6877	0.15341	-1.961	1.563	-0.0592	0.0182	-0.0073	-0.0462	0.0165	0.9585
13.2854	25.8928	725.0163	56.2067	-255.3822	-43.7477	712.5629	0.45389	2.962	0.67679	0.932	-0.2551	3.0781	-0.0592	0.0182	-0.0073	-0.0462	0.0165	0.9585
13.2968	30.4111	720.1131	54.9592	-253.1775	-40.8113	702.9777	-1.7418	3.3496	-0.61045	1.447	0.8548	4.1435	-0.0592	0.0182	-0.0073	-0.0462	0.0165	0.9585
13.3081	34.3311	716.1486	54.1591	-251.2669	-38.3979	694.4909	-2.9107	3.5824	-1.3363	1.7368	1.4975	4.7476	-0.0592	0.0182	-0.0073	-0.0462	0.0165	0.9585
13.3195	37.6835	713.721	53.7524	-249.8348	-36.4944	687.7664	-3.4257	3.6883	-1.6767	1.8548	1.841	5.0193	-0.0592	0.0182	-0.0073	-0.0462	0.0165	0.9585
13.3309	40.513	713.2774	53.6382	-249.0192	-35.0291	683.2957	-3.5091	3.5947	-1.7845	1.8216	2.0029	4.9174	-0.0592	0.0182	-0.0073	-0.0462	0.0165	0.9585
13.3422	42.8936	715.0337	53.7837	-248.881	-33.9707	681.2944	-3.4075	3.2663	-1.7762	1.6527	2.089	4.4679	-0.0592	0.0182	-0.0073	-0.0462	0.0165	0.9585
13.3536	44.8964	718.984	54.177	-249.4069	-33.3009	681.7294	-3.21	2.5933	-1.7418	1.3317	2.1573	3.5523	-0.0592	0.0182	-0.0073	-0.0462	0.0165	0.9585
13.3649	46.648	724.8761	54.8857	-250.5021	-33.049	684.3055	-3.0143	1.5015	-1.7225	0.83935	2.2369	2.1264	-0.0592	0.0182	-0.0073	-0.0462	0.0165	0.9585
13.3763	48.2598	732.3203	55.9929	-252.0229	-33.2522	688.6091	-2.7884	-0.10517	-1.7436	0.15	2.3219	0.077024	-0.0592	0.0182	-0.0073	-0.0462	0.0165	0.9585
13.3876	49.8817	740.8133	57.5252	-253.7902	-33.8747	694.0852	-2.523	-2.2168	-1.7825	-0.73216	2.3671	-2.5597	-0.0592	0.0182	-0.0073	-0.0462	0.0165	0.9585
13.399	51.6005	749.7544	59.4424	-255.5927	-34.8362	700.1394	-2.0987	-4.7398	-1.7992	-1.7642	2.2792	-5.6761	-0.0592	0.0182	-0.0073	-0.0462	0.0165	0.9585
13.4104	53.4602	758.3718	61.6531	-257.1655	-36.0269	706.0258	-1.4247	-7.3595	-1.7146	-2.8191	1.9272	-8.8906	-0.0592	0.0182	-0.0073	-0.0462	0.0165	0.9585
13.4217	55.3586	765.8838	64.0624	-258.2353	-37.3784	711.0618	-0.34095	-9.501	-1.4244	-3.66	1.1339	-11.5309	-0.0592	0.0182	-0.0073	-0.0462	0.0165	0.9585
13.4331	57.1831	771.6493	66.5568	-258.5807	-38.8218	714.6876	1.2458	-10.2108	-0.7929	-3.8952	-0.29947	-12.4335	-0.0592	0.0182	-0.0073	-0.0462	0.0165	0.9585
13.4444	58.7318	775.2907	69.0355	-258.0739	-40.3293	716.6311	3.4323	-8.0968	0.30736	-2.9543	-2.5541	-9.924	-0.0592	0.0182	-0.0073	-0.0462	0.0165	0.9585
13.4558	59.9422	776.609	71.4005	-256.6636	-41.8502	716.734	6.1463	-1.2932	2.0135	-0.0769	-5.7588	-1.7316	-0.0592	0.0182	-0.0073	-0.0462	0.0165	0.9585
13.4671	60.7721	775.5162	73.5141	-254.3543	-43.2909	714.929	9.179	12.4403	4.3925	5.646	-9.8933	14.8762	-0.0592	0.0182	-0.0073	-0.0462	0.0165	0.9585
13.4785	61.361	771.9019	75.1965	-251.1744	-44.4727	711.0289	11.9829	35.465	7.4082	15.1632	-14.6753	42.8016	-0.0592	0.0182	-0.0073	-0.0462	0.0165	0.9585
13.4899	61.8699	765.5815	76.1981	-247.1547	-45.1312	704.7883	13.6474	69.7171	10.8189	29.2389	-19.4143	84.4312	-0.0592	0.0182	-0.0073	-0.0462	0.0165	0.9585
13.5012	62.548	756.0763	76.2582	-242.2519	-44.9642	695.6288	12.7533	115.8958	14.063	48.1099	-22.8376	140.6789	-0.0592	0.0182	-0.0073	-0.0462	0.0165	0.9585
13.5126	63.4714	742.4929	75.1159	-236.286	-43.7085	682.6513	7.6261	172.4279	16.2189	71.0625	-23.1475	209.7088	-0.0592	0.0182	-0.0073	-0.0462	0.0165	0.9585
13.5239	64.6158	723.3745	72.5919	-228.8815	-41.2096	664.4395	-2.8708	234.5568	16.1074	96.0727	-18.4674	285.8215	-0.0592	0.0182	-0.0073	-0.0462	0.0165	0.9585
13.5353	65.6691	696.9656	68.6259	-219.5303	-37.5039	639.4256	-17.4838	294.649	12.5302	119.997	-8.0078	359.7231	-0.0592	0.0182	-0.0073	-0.0462	0.0165	0.9585
13.5466	66.2352	661.6905	63.3122	-207.742	-32.801	606.2283	-32.5517	345.6279	5.7338	139.9939	6.4238	422.5198	-0.0592	0.0182	-0.0073	-0.0462	0.0165	0.9585
13.558	65.8292	616.8714	56.9256	-193.2595	-27.4855	564.3747	-45.4875	383.9755	-3.0814	154.7062	22.2873	469.6164	-0.0592	0.0182	-0.0073	-0.0462	0.0165	0.9585
13.5694	64.1377	563.0051	49.9165	-176.1659	-22.0391	514.3837	-54.9509	410.7005	-12.7706	164.602	37.6726	501.9724	-0.0592	0.0182	-0.0073	-0.0462	0.0165	0.9585
13.5807	60.9218	501.7857	42.7475	-156.9043	-16.9256	457.8975	-60.7916	429.6423	-21.9991	171.305	50.9767	524.2528	-0.0592	0.0182	-0.0073	-0.0462	0.0165	0.9585
13.5921	56.1364	435.7297	35.809	-136.1893	-12.4995	397.2233	-63.4234	445.451	-30.1198	176.7483	61.6111	542.1409	-0.0592	0.0182	-0.0073	-0.0462	0.0165	0.9585
13.6034	49.7986	367.9469	29.3162	-114.9435	-8.9499	335.2329	-63.7938	462.2448	-36.6005	182.6256	69.3756	560.6844	-0.0592	0.0182	-0.0073	-0.0462	0.0165	0.9585
13.6148	42.187	301.6944	23.4118	-94.1696	-6.33	274.8439	-62.6594	482.6872	-41.6614	190.0231	74.8421	583.073	-0.0592	0.0182	-0.0073	-0.0462	0.0165	0.9585
13.6261	33.7574	240.0068	18.1786	-74.8168	-4.5743	218.7821	-60.7856	508.3348	-45.6841	199.5266	78.7797	611.2112	-0.0592	0.0182	-0.0073	-0.0462	0.0165	0.9585
13.6375	25.1955	185.1804	13.7157	-57.6157	-3.5466	169.0256	-58.6028	539.2364	-49.2716	211.1167	82.0758	645.1466	-0.0592	0.0182	-0.0073	-0.0462	0.0165	0.9585
13.6489	17.1565	138.4849	10.0732	-42.9753	-3.0668	126.6773	-56.5389	574.139	-52.9306	224.2395	85.4715	683.4905	-0.0592	0.0182	-0.0073	-0.0462	0.0165	0.9585
13.6602	10.1616	100.0902	7.2273	-30.96	-2.9338	91.8267	-54.814	610.7207	-56.9636	237.949	89.4017	723.5409	-0.0592	0.0182	-0.0073	-0.0462	0.0165	0.9585
13.6716	4.4799	69.4653	5.1029	-21.4016	-2.9852	64.0065	-53.6441	646.6707	-61.5005	251.3085	94.0662	762.6761	-0.0592	0.0182	-0.0073	-0.0462	0.0165	0.9585
13.6829	0.23793	45.6986	3.5563	-14.0124	-3.0534	42.3866	-52.9831	680.1895	-66.2619	263.6285	99.1509	798.7879	-0.0592	0.0182	-0.0073	-0.0462	0.0165	0.9585
13.6943	-2.5658	27.8705	2.409	-8.4946	-2.984	26.1641	-52.8287	710.2143	-71.0078	274.511	104.3571	830.6981	-0.0592	0.0182	-0.0073	-0.0462	0.0165	0.9585
13.7056	-3.9518	15.0595	1.553	-4.5532	-2.6997	14.5048	-52.9818	736.0642	-75.3317	283.7386	109.1654	857.5902	-0.0592	0.0182	-0.0073	-0.0462	0.0165	0.9585
13.717	-4.1551	6.4554	0.88695	-1.9292	-2.1908	6.6681	-53.3276	757.3647	-78.9715	291.1969	113.2274	879.0901	-0.0592	0.0182	-0.0073	-0.0462	0.0165	0.9585
13.7284	-3.6723	1.284	0.43372	-0.37276	-1.6412	1.935	-53.6859	773.7729	-81.7007	296.7972	116.2316	894.8021	-0.0592	0.0182	-0.0073	-0.0462	0.0165	0.9585
13.7397	-2.886	-1.3236	0.16059	0.39112	-1.1462	-0.46688	-53.9687	785.1628	-83.4921	300.5083	118.1086	904.6182	-0.0592	0.0182	-0.0073	-0.0462	0.0165	0.9585
13.7511	-2.055	-2.1801	0.033739	0.62083	-0.76354	-1.273	-54.0432	791.6272	-84.4062	302.3918	118.8805	908.6313	-0.0592	0.0182	-0.0073	-0.0462	0.0165	0.9585
13.7624	-1.3191	-1.9769	0.0072425	0.5329	-0.49805	-1.0977	-53.8692	793.7234	-84.5104	302.6702	118.6131	907.4939	-0.0592	0.0182	-0.0073	-0.0462	0.0165	0.9585
13.7738	-0.72432	-1.2129	0.029209	0.28339	-0.32377	-0.4065	-53.3557	792.2323	-83.9499	301.6544	117.4354	902.0804	-0.0592	0.0182	-0.0073	-0.0462	0.0165	0.9585
13.7851	-0.30228	-0.25327	0.075615	-0.016809	-0.22758	0.45775	-52.4999	788.0984	-82.7847	299.71	115.4176	893.4826	-0.0592	0.0182	-0.0073	-0.0462	0.0165	0.9585
13.7965	-0.018415	0.69594	0.11105	-0.30728	-0.16827	1.3185	-51.2562	782.2494	-81.1711	297.1888	112.7186	882.7541	-0.0592	0.0182	-0.0073	-0.0462	0.0165	0.9585
13.8079	0.14815	1.5329	0.13519	-0.56018	-0.13591	2.0931	-49.7046	775.4641	-79.2005	294.3818	109.473	870.8046	-0.0592	0.0182	-0.0073	-0.0462	0.0165	0.9585
13.8192	0.22546	2.2121	0.13779	-0.76574	-0.11471	2.7482	-47.8725	768.285	-77.0685	291.4825	105.9164	858.2559	-0.0592	0.0182	-0.0073	-0.0462	0.0165	0.9585
13.8306	0.25121	2.743	0.13617	-0.92841	-0.11068	3.2895	-45.8614	761.0171	-74.934	288.5974	102.2599	845.4679	-0.0592	0.0182	-0.0073	-0.0462	0.0165	0.9585
13.8419	0.22524	3.137	0.13592	-1.0524	-0.13145	3.7248	-43.6769	753.7963	-72.9806	285.7723	98.7094	832.5858	-0.0592	0.0182	-0.0073	-0.0462	0.0165	0.9585
13.8533	0.16979	3.4024	0.15153	-1.1375	-0.18615	4.0398	-41.3266	746.689	-71.3074	283.0358	95.3748	819.6747	-0.0592	0.0182	-0.0073	-0.0462	0.0165	0.9585
13.8646	0.07978	3.5427	0.17854	-1.1805	-0.27172	4.2298	-38.7344	739.775	-69.9243	280.4332	92.2544	806.7792	-0.0592	0.0182	-0.0073	-0.0462	0.0165	0.9585
13.876	-0.038942	3.509	0.23038	-1.1633	-0.39462	4.2082	-35.8057	733.2915	-68.785	278.0684	89.2743	794.1096	-0.0592	0.0182	-0.0073	-0.0462	0.0165	0.9585
13.8874	-0.19262	3.2561	0.29427	-1.0682	-0.53647	3.919	-32.4076	727.6179	-67.7653	276.1006	86.2684	781.9952	-0.0592	0.0182	-0.0073	-0.0462	0.0165	0.9585
13.8987	-0.35799	2.6796	0.37916	-0.8612	-0.69497	3.2192	-28.4396	723.2754	-66.7928	274.7338	83.1222	770.9417	-0.0592	0.0182	-0.0073	-0.0462	0.0165	0.9585
13.9101	-0.55049	1.6958	0.46889	-0.51421	-0.85636	2.0126	-23.8325	720.7887	-65.7863	274.166	79.7237	761.4759	-0.0592	0.0182	-0.0073	-0.0462	0.0165	0.9585
13.9214	-0.69656	0.19315	0.55552	0.0063769	-0.99291	0.16485	-18.6363	720.5146	-64.7741	274.5115	76.1086	754.0123	-0.0592	0.0182	-0.0073	-0.0462	0.0165	0.9585
13.9328	-0.78511	-1.8719	0.61114	0.71344	-1.0677	-2.355	-12.9861	722.475	-63.8251	275.7377	72.3837	748.6503	-0.0592	0.0182	-0.0073	-0.0462	0.0165	0.9585
13.9441	-0.69435	-4.4474	0.5966	1.5845	-1.0002	-5.4989	-7.0956	726.271	-63.0903	277.6332	68.7643	745.1086	-0.0592	0.0182	-0.0073	-0.0462	0.0165	0.9585
13.9555	-0.34671	-7.2958	0.46536	2.5372	-0.7023	-8.9463	-1.2232	731.0976	-62.754	279.8267	65.5056	742.7137	-0.0592	0.0182	-0.0073	-0.0462	0.0165	0.9585
13.9669	0.41796	-9.9218	0.14778	3.3975	-0.04253	-12.1354	4.4034	735.9345	-62.9465	281.8676	62.8064	740.5821	-0.0592	0.0182	-0.0073	-0.0462	0.0165	0.9585
